<svg width="24" height="24" viewBox="0 0 24 24" fill="none" xmlns="http://www.w3.org/2000/svg">
<path d="M15.5922 16.7019L18.9231 17.5347L21.3572 15.1006L17.538 15.1006L15.5922 16.7019Z" fill="#F8F7FA"/>
<path d="M16.7136 12L20.7292 12.8031L21.3075 14.1575L17.675 14.1575L16.7136 12Z" fill="#F8F7FA"/>
<path d="M14.9551 16.0048L14.2076 13.7623L15.7701 12.1997L16.7921 14.493L14.9551 16.0048Z" fill="#F8F7FA"/>
<path d="M11.9499 20.9808L9.69495 19.4121L4.06435 19.4333L4.15992 19.5989L7.16644 21.2679L11.9499 20.9808Z" fill="#F8F7FA"/>
<path d="M12.5789 20.4017L10.5666 19.0018L12.9775 17.4003L13.2951 17.7288L12.5789 20.4017Z" fill="#F8F7FA"/>
<path d="M12.388 16.7906L9.91476 14.2327L5.88682 13.1535L2.39073 16.5339L3.58382 18.6004L9.69834 18.5774L12.388 16.7906Z" fill="#F8F7FA"/>
<path d="M15.4164 4.47894L11.672 2.34033L5.09687 4.135L3.71277 11.0629L11.6915 8.2548L15.4164 4.47894Z" fill="#F8F7FA"/>
<path d="M15.3037 6.12763L12.707 8.75994L13.7451 10.0635L15.3037 6.12763Z" fill="#F8F7FA"/>
<path d="M13.1746 11.0771L11.8051 9.35729L5.74922 11.4886L13.1746 11.0771Z" fill="#F8F7FA"/>
</svg>
