<svg width="24" height="24" viewBox="0 0 24 24" fill="none" xmlns="http://www.w3.org/2000/svg">
<path d="M12 7.4999C12 7.4999 12.829 2.8349 17.506 2.0189C18.322 1.8759 19 2.5649 19 3.3929V15.5059C19 16.0579 18.55 16.4979 18 16.5589C12.887 17.1269 12 21.9999 12 21.9999M12 7.4999V21.9999M12 7.4999C10.169 5.8869 7.793 4.9969 5.333 4.9999C5.14833 4.9999 4.965 5.0049 4.783 5.0149C3.659 5.0739 3.097 5.1039 2.549 5.6829C2 6.2619 2 6.9749 2 8.4029V16.6629C2 17.8949 2 18.5099 2.221 18.8549C2.32259 19.0313 2.46882 19.1779 2.645 19.2799C2.99 19.4999 3.771 19.4999 5.333 19.4999C7.78563 19.4935 10.1563 20.3825 12 21.9999" stroke="white" stroke-width="1.5" stroke-linecap="round" stroke-linejoin="round"/>
<path d="M12 22.001C13.8437 20.3836 16.2144 19.4946 18.667 19.501C20.229 19.501 21.01 19.501 21.355 19.281C21.562 19.148 21.646 19.063 21.779 18.856C22 18.511 22 17.896 22 16.664V8.404C22 6.976 22 6.263 21.451 5.684C20.902 5.105 20.123 5.06 19 5" stroke="white" stroke-width="1.5" stroke-linecap="round" stroke-linejoin="round"/>
</svg>
