<svg width="160" height="280" viewBox="0 0 160 280" fill="none" xmlns="http://www.w3.org/2000/svg">
<path fill-rule="evenodd" clip-rule="evenodd" d="M53.0433 280H8.97564L0 271.745V271.657L0.143032 27.124H114.883L143.288 1H160V279.956H109.77L102.57 273.335H60.3025L53.0433 280ZM9.16634 279.561H52.8407L60.0998 272.885H102.761L109.96 279.507H159.511V1.42755H143.479L115.074 27.5516H0.607894L0.464862 271.559L9.16634 279.561Z" fill="white"/>
<path fill-rule="evenodd" clip-rule="evenodd" d="M110.905 21H0V0L133 0.398945L110.905 21ZM0.463279 20.5567H110.703L131.848 0.831135L0.463279 0.443272V20.5567Z" fill="white"/>
<path fill-rule="evenodd" clip-rule="evenodd" d="M156 276H114.271L105.706 268.102H57.6518L50.8142 274.407H13.6715L6 267.333V31.2542H117.023L145.481 5H156V276ZM114.366 275.78H155.762V5.2197H145.589L117.118 31.4739H6.23825V267.245L13.7668 274.198H50.7189L57.5566 267.882H105.801L114.366 275.78Z" fill="white"/>
<path fill-rule="evenodd" clip-rule="evenodd" d="M108.369 18H5V4H5.11934L123 4.1245L108.369 18ZM5.23867 17.7736H108.274L122.427 4.35085L5.23867 4.21504V17.7736Z" fill="white"/>
<path d="M59 280L63.0321 276H101.027L105 279.941L59 280Z" fill="white"/>
</svg>
